<svg xmlns="http://www.w3.org/2000/svg" xmlns:xlink="http://www.w3.org/1999/xlink" version="1.1" width="256" height="256" viewBox="0 0 256 256" xml:space="preserve">

<defs>
</defs>
<g style="stroke: none; stroke-width: 0; stroke-dasharray: none; stroke-linecap: butt; stroke-linejoin: miter; stroke-miterlimit: 10; fill: none; fill-rule: nonzero; opacity: 1;" transform="translate(1.4065934065934016 1.4065934065934016) scale(2.81 2.81)" >
	<path d="M 82.039 17.28 L 66.091 1.332 C 65.232 0.473 64.09 0 62.875 0 H 20.307 c -2.508 0 -4.548 2.04 -4.548 4.548 V 43.16 h 1.5 v 30.786 v 0 h -1.5 v 11.506 c 0 2.508 2.04 4.548 4.548 4.548 h 58.517 c 2.508 0 4.548 -2.04 4.548 -4.548 V 20.496 C 83.371 19.281 82.898 18.14 82.039 17.28 z" style="stroke: none; stroke-width: 1; stroke-dasharray: none; stroke-linecap: butt; stroke-linejoin: miter; stroke-miterlimit: 10; fill: rgb(220,223,225); fill-rule: nonzero; opacity: 1;" transform=" matrix(1 0 0 1 0 0) " stroke-linecap="round" />
	<path d="M 66.223 45.16 H 15.688 v 30.786 h 50.536 c 1.534 0 2.777 -1.199 2.777 -2.677 V 47.837 C 69.001 46.359 67.757 45.16 66.223 45.16 z" style="stroke: none; stroke-width: 1; stroke-dasharray: none; stroke-linecap: butt; stroke-linejoin: miter; stroke-miterlimit: 10; fill: rgb(196,203,210); fill-rule: nonzero; opacity: 1;" transform=" matrix(1 0 0 1 0 0) " stroke-linecap="round" />
	<path d="M 8.129 71.269 c 0 1.479 1.243 2.677 2.777 2.677 h 53.317 c 1.534 0 2.777 -1.199 2.777 -2.677 V 45.837 c 0 -1.479 -1.243 -2.677 -2.777 -2.677 H 10.906 c -1.534 0 -2.777 1.199 -2.777 2.677 V 71.269 z" style="stroke: none; stroke-width: 1; stroke-dasharray: none; stroke-linecap: butt; stroke-linejoin: miter; stroke-miterlimit: 10; fill: rgb(234,84,64); fill-rule: nonzero; opacity: 1;" transform=" matrix(1 0 0 1 0 0) " stroke-linecap="round" />
	<polygon points="64.83,18.41 83.37,36.88 83.3,19.73 " style="stroke: none; stroke-width: 1; stroke-dasharray: none; stroke-linecap: butt; stroke-linejoin: miter; stroke-miterlimit: 10; fill: rgb(196,203,210); fill-rule: nonzero; opacity: 1;" transform="  matrix(1 0 0 1 0 0) "/>
	<path d="M 82.039 17.28 L 66.091 1.332 c -0.675 -0.676 -1.529 -1.102 -2.453 -1.258 v 15.382 c 0 2.358 1.919 4.277 4.277 4.277 h 15.382 C 83.141 18.81 82.715 17.956 82.039 17.28 z" style="stroke: none; stroke-width: 1; stroke-dasharray: none; stroke-linecap: butt; stroke-linejoin: miter; stroke-miterlimit: 10; fill: rgb(171,178,184); fill-rule: nonzero; opacity: 1;" transform=" matrix(1 0 0 1 0 0) " stroke-linecap="round" />
	<path d="M 23.009 65.031 c -0.311 0 -0.61 -0.145 -0.803 -0.404 l -5.354 -7.21 v 6.614 c 0 0.553 -0.448 1 -1 1 s -1 -0.447 -1 -1 v -9.639 c 0 -0.432 0.276 -0.814 0.686 -0.949 c 0.409 -0.136 0.859 0.006 1.117 0.354 l 5.354 7.21 v -6.614 c 0 -0.553 0.448 -1 1 -1 s 1 0.447 1 1 v 9.639 c 0 0.432 -0.276 0.814 -0.686 0.949 C 23.22 65.015 23.114 65.031 23.009 65.031 z" style="stroke: none; stroke-width: 1; stroke-dasharray: none; stroke-linecap: butt; stroke-linejoin: miter; stroke-miterlimit: 10; fill: rgb(255,255,255); fill-rule: nonzero; opacity: 1;" transform=" matrix(1 0 0 1 0 0) " stroke-linecap="round" />
	<path d="M 33.24 60.212 c 0.552 0 1 -0.447 1 -1 s -0.448 -1 -1 -1 h -3.862 v -2.819 h 3.862 c 0.552 0 1 -0.447 1 -1 s -0.448 -1 -1 -1 h -4.862 c -0.552 0 -1 0.447 -1 1 v 9.639 c 0 0.553 0.448 1 1 1 h 4.862 c 0.552 0 1 -0.447 1 -1 s -0.448 -1 -1 -1 h -3.862 v -2.819 H 33.24 z" style="stroke: none; stroke-width: 1; stroke-dasharray: none; stroke-linecap: butt; stroke-linejoin: miter; stroke-miterlimit: 10; fill: rgb(255,255,255); fill-rule: nonzero; opacity: 1;" transform=" matrix(1 0 0 1 0 0) " stroke-linecap="round" />
	<path d="M 46.617 65.031 c -0.43 0 -0.814 -0.275 -0.95 -0.687 l -2.228 -6.758 l -2.228 6.758 c -0.14 0.426 -0.564 0.711 -0.994 0.686 c -0.448 -0.02 -0.828 -0.335 -0.929 -0.771 l -2.248 -9.639 c -0.125 -0.538 0.208 -1.076 0.747 -1.201 c 0.535 -0.122 1.075 0.209 1.201 0.746 l 1.439 6.171 l 2.063 -6.257 c 0.135 -0.409 0.518 -0.687 0.95 -0.687 s 0.814 0.277 0.95 0.687 l 2.063 6.258 l 1.439 -6.172 c 0.125 -0.537 0.658 -0.869 1.201 -0.746 c 0.537 0.125 0.872 0.663 0.746 1.201 l -2.248 9.639 c -0.102 0.436 -0.481 0.751 -0.929 0.771 C 46.646 65.031 46.632 65.031 46.617 65.031 z" style="stroke: none; stroke-width: 1; stroke-dasharray: none; stroke-linecap: butt; stroke-linejoin: miter; stroke-miterlimit: 10; fill: rgb(255,255,255); fill-rule: nonzero; opacity: 1;" transform=" matrix(1 0 0 1 0 0) " stroke-linecap="round" />
	<path d="M 56.452 65.031 h -3.596 c -0.553 0 -1 -0.447 -1 -1 s 0.447 -1 1 -1 h 3.596 c 0.777 0 1.41 -0.632 1.41 -1.409 s -0.633 -1.41 -1.41 -1.41 h -1.187 c -1.88 0 -3.409 -1.529 -3.409 -3.409 s 1.529 -3.41 3.409 -3.41 h 2.777 c 0.553 0 1 0.447 1 1 s -0.447 1 -1 1 h -2.777 c -0.777 0 -1.409 0.633 -1.409 1.41 s 0.632 1.409 1.409 1.409 h 1.187 c 1.88 0 3.41 1.53 3.41 3.41 S 58.332 65.031 56.452 65.031 z" style="stroke: none; stroke-width: 1; stroke-dasharray: none; stroke-linecap: butt; stroke-linejoin: miter; stroke-miterlimit: 10; fill: rgb(255,255,255); fill-rule: nonzero; opacity: 1;" transform=" matrix(1 0 0 1 0 0) " stroke-linecap="round" />
</g>
</svg>